<svg xmlns="http://www.w3.org/2000/svg" xmlns:xlink="http://www.w3.org/1999/xlink" aria-label="CSS3" role="img" version="1.1" viewBox="0 0 12 13"><polygon id="Path" fill="#264DE4" points="5.666 12.96 1.049 11.678 .02 .136 11.327 .136 10.296 11.676"/><polygon id="Path" fill="#2965F1" points="9.415 10.941 10.295 1.08 5.673 1.08 5.673 11.978"/><polygon id="Path" fill="#EBEBEB" points="2.379 5.361 2.506 6.776 5.673 6.776 5.673 5.361"/><polygon id="Path" fill="#EBEBEB" points="2.124 2.496 2.252 3.911 5.673 3.911 5.673 2.496"/><polygon id="Path" fill="#EBEBEB" points="5.673 9.037 5.667 9.038 4.09 8.613 3.99 7.484 2.569 7.484 2.767 9.706 5.667 10.511 5.673 10.509"/><polygon id="Path" fill="#FFF" points="8.959 5.361 9.214 2.496 5.668 2.496 5.668 3.911 7.663 3.911 7.534 5.361 5.668 5.361 5.668 6.776 7.411 6.776 7.247 8.612 5.668 9.038 5.668 10.511 8.57 9.706 8.591 9.467 8.924 5.741"/></svg>