<svg xmlns="http://www.w3.org/2000/svg" xmlns:xlink="http://www.w3.org/1999/xlink" version="1.1" viewBox="0 0 18 16"><polygon id="Path" fill="#E24329" points="8.646 15.938 8.646 15.938 11.826 6.151 5.466 6.151"/><polygon id="Path" fill="#FC6D26" points="8.646 15.938 5.466 6.15 1.01 6.15"/><path id="Path" fill="#FCA326" d="M1.00968005,6.15050982 L0.0433301989,9.12469799 C-0.0448115733,9.39595409 0.0517246534,9.69313418 0.282489853,9.86077637 L8.64641154,15.9375385 L1.00968005,6.15050982 Z"/><path id="Path" fill="#E24329" d="M1.00968005,6.15051805 L5.46639469,6.15051805 L3.55106,0.255882725 C3.4525486,-0.0474698172 3.02344384,-0.0473875186 2.92493245,0.255882725 L1.00968005,6.15051805 Z"/><polygon id="Path" fill="#FC6D26" points="8.646 15.938 11.826 6.15 16.283 6.15"/><path id="Path" fill="#FCA326" d="M16.2831349,6.15050982 L17.2494847,9.12469799 C17.3376265,9.39595409 17.2410903,9.69313418 17.0103251,9.86077637 L8.64640338,15.9375385 L16.2831349,6.15050982 Z"/><path id="Path" fill="#E24329" d="M16.2831349,6.15051805 L11.8264203,6.15051805 L13.7417549,0.255882725 C13.8402663,-0.0474698172 14.2693711,-0.0473875186 14.3678825,0.255882725 L16.2831349,6.15051805 Z"/></svg>