<svg xmlns="http://www.w3.org/2000/svg" xmlns:xlink="http://www.w3.org/1999/xlink" aria-label="HTML" role="img" version="1.1" viewBox="0 0 15 16"><polygon id="Path" fill="#E44D26" points="14.051 .042 12.773 14.357 7.029 15.95 1.301 14.36 .024 .042"/><polygon id="Path" fill="#F16529" points="7.038 14.733 11.679 13.446 12.771 1.213 7.038 1.213"/><polygon id="Path" fill="#EBEBEB" points="4.554 4.725 7.038 4.725 7.038 2.969 2.635 2.969 2.677 3.44 3.108 8.279 7.038 8.279 7.038 6.523 4.714 6.523"/><polygon id="Path" fill="#EBEBEB" points="4.949 9.157 3.187 9.157 3.433 11.914 7.03 12.913 7.038 12.91 7.038 11.083 7.03 11.085 5.074 10.557"/><polygon id="Path" fill="#FFF" points="7.032 8.279 9.194 8.279 8.99 10.556 7.032 11.085 7.032 12.912 10.632 11.914 10.658 11.617 11.071 6.994 11.113 6.523 7.032 6.523"/><polygon id="Path" fill="#FFF" points="7.032 4.72 7.032 4.725 11.273 4.725 11.309 4.33 11.389 3.44 11.431 2.969 7.032 2.969"/></svg>