<svg xmlns="http://www.w3.org/2000/svg" xmlns:xlink="http://www.w3.org/1999/xlink" version="1.1" viewBox="0 0 14 16"><defs><linearGradient id="linearGradient-1" x1="48.548%" x2="51.047%" y1="115.276%" y2="41.364%"><stop offset="0%" stop-color="#FFEED7"/><stop offset="100%" stop-color="#BDBFC2"/></linearGradient><linearGradient id="linearGradient-2" x1="54.407%" x2="46.175%" y1="2.404%" y2="90.542%"><stop offset="0%" stop-color="#FFF" stop-opacity=".8"/><stop offset="100%" stop-color="#FFF" stop-opacity="0"/></linearGradient><linearGradient id="linearGradient-3" x1="51.86%" x2="47.947%" y1="88.248%" y2="9.748%"><stop offset="0%" stop-color="#FFEED7"/><stop offset="100%" stop-color="#BDBFC2"/></linearGradient><linearGradient id="linearGradient-4" x1="49.925%" x2="49.924%" y1="85.49%" y2="13.811%"><stop offset="0%" stop-color="#FFEED7"/><stop offset="100%" stop-color="#BDBFC2"/></linearGradient><linearGradient id="linearGradient-5" x1="53.901%" x2="45.956%" y1="3.102%" y2="93.895%"><stop offset="0%" stop-color="#FFF" stop-opacity=".65"/><stop offset="100%" stop-color="#FFF" stop-opacity="0"/></linearGradient><linearGradient id="linearGradient-6" x1="45.593%" x2="54.811%" y1="5.475%" y2="93.524%"><stop offset="0%" stop-color="#FFF" stop-opacity=".65"/><stop offset="100%" stop-color="#FFF" stop-opacity="0"/></linearGradient><linearGradient id="linearGradient-7" x1="49.984%" x2="49.984%" y1="89.845%" y2="40.632%"><stop offset="0%" stop-color="#FFEED7"/><stop offset="100%" stop-color="#BDBFC2"/></linearGradient><linearGradient id="linearGradient-8" x1="53.505%" x2="42.746%" y1="99.975%" y2="23.545%"><stop offset="0%" stop-color="#FFEED7"/><stop offset="100%" stop-color="#BDBFC2"/></linearGradient><linearGradient id="linearGradient-9" x1="49.841%" x2="50.241%" y1="13.229%" y2="94.673%"><stop offset="0%" stop-color="#FFF" stop-opacity=".8"/><stop offset="100%" stop-color="#FFF" stop-opacity="0"/></linearGradient><linearGradient id="linearGradient-10" x1="49.927%" x2="50.727%" y1="37.327%" y2="92.782%"><stop offset="0%" stop-color="#FFF" stop-opacity=".65"/><stop offset="100%" stop-color="#FFF" stop-opacity="0"/></linearGradient><linearGradient id="linearGradient-11" x1="49.876%" x2="49.876%" y1="2.299%" y2="81.204%"><stop offset="0%" stop-color="#FFF" stop-opacity=".65"/><stop offset="100%" stop-color="#FFF" stop-opacity="0"/></linearGradient><linearGradient id="linearGradient-12" x1="49.833%" x2="49.824%" y1="2.272%" y2="71.799%"><stop offset="0%" stop-color="#FFF" stop-opacity=".65"/><stop offset="100%" stop-color="#FFF" stop-opacity="0"/></linearGradient><linearGradient id="linearGradient-13" x1="53.467%" x2="38.949%" y1="48.921%" y2="98.1%"><stop offset="0%" stop-color="#FFA63F"/><stop offset="100%" stop-color="#FF0"/></linearGradient><linearGradient id="linearGradient-14" x1="52.373%" x2="47.579%" y1="143.009%" y2="-64.622%"><stop offset="0%" stop-color="#FFEED7"/><stop offset="100%" stop-color="#BDBFC2"/></linearGradient><linearGradient id="linearGradient-15" x1="30.581%" x2="65.887%" y1="34.024%" y2="89.175%"><stop offset="0%" stop-color="#FFA63F"/><stop offset="100%" stop-color="#FF0"/></linearGradient><linearGradient id="linearGradient-16" x1="59.572%" x2="48.361%" y1="-17.216%" y2="66.118%"><stop offset="0%" stop-color="#FFF" stop-opacity=".65"/><stop offset="100%" stop-color="#FFF" stop-opacity="0"/></linearGradient><linearGradient id="linearGradient-17" x1="47.769%" x2="51.373%" y1="1.565%" y2="104.313%"><stop offset="0%" stop-color="#FFF" stop-opacity=".65"/><stop offset="100%" stop-color="#FFF" stop-opacity="0"/></linearGradient><linearGradient id="linearGradient-18" x1="43.55%" x2="57.114%" y1="4.533%" y2="92.827%"><stop offset="0%" stop-color="#FFF" stop-opacity=".65"/><stop offset="100%" stop-color="#FFF" stop-opacity="0"/></linearGradient><linearGradient id="linearGradient-19" x1="49.733%" x2="50.558%" y1="17.609%" y2="99.385%"><stop offset="0%" stop-color="#FFA63F"/><stop offset="100%" stop-color="#FF0"/></linearGradient><linearGradient id="linearGradient-20" x1="50.17%" x2="49.68%" y1="2.89%" y2="94.17%"><stop offset="0%" stop-color="#FFF" stop-opacity=".65"/><stop offset="100%" stop-color="#FFF" stop-opacity="0"/></linearGradient></defs><g fill="none" fill-rule="evenodd" stroke="none" stroke-width="1"><path id="Path" fill="#000" fill-opacity=".2" d="M13.3879244,14.198356 C13.3879244,15.1865777 10.3918875,15.9917953 6.69520666,15.9917953 C2.9985258,15.9917953 0.00248885442,15.1918063 0.00248885442,14.198356 C0.00248885442,13.2101344 2.9985258,12.4049168 6.69520666,12.4049168 C10.3918875,12.4049168 13.3826957,13.2101344 13.3879244,14.198356 Z"/><path id="Path" fill="#000" d="M3.02989791,12.268971 C2.38154088,11.3382649 2.25605242,8.30562722 3.7671426,6.43898642 C4.51484467,5.54488113 4.70830604,4.92266752 4.76582159,4.08084911 C4.80765107,3.12399962 4.09132112,0.274365874 6.78932299,0.0599897577 C9.52392564,-0.159615045 9.37229375,2.53838681 9.35660772,3.96581803 C9.34615032,5.16841575 10.2402556,5.85337361 10.8572405,6.794537 C11.9918653,8.5200033 11.897749,11.4898968 10.6428644,13.1003321 C9.05334394,15.1133761 7.69388561,14.2401856 6.78932299,14.3133872 C5.09522879,14.4127322 5.03771325,15.3120662 3.02989791,12.268971 Z"/><path id="Path" fill="url(#linearGradient-1)" d="M9.62849936,6.97231231 C10.0990811,7.40629324 11.3173648,9.34613569 9.38797979,10.5591908 C8.70825065,10.9827143 9.99450733,12.5931496 10.6114923,11.8140754 C11.7042876,10.4127876 11.0088724,8.17491006 10.350058,7.37492117 C9.9108484,6.81022309 9.23111926,6.59061831 9.62849936,6.97231231 Z"/><path id="Path" fill="#000" stroke="#000" stroke-width=".5" d="M9.49778221,6.71087806 C10.2716277,7.33832034 11.6781442,9.53436834 9.62327066,10.9670283 C8.94877022,11.4114665 10.2193409,12.817983 10.9356708,12.1016531 C13.4192965,9.6023413 10.8729266,6.7317928 9.99450733,5.74357119 C9.21020447,4.88083804 8.5147893,5.94226124 9.49778221,6.71087806 Z"/><path id="Path" fill="url(#linearGradient-2)" d="M8.38407214,1.42467674 C8.35792871,2.14100669 7.56839715,2.7632203 6.62200501,2.82073584 C5.67561291,2.87825139 4.93313953,2.33446807 4.95928296,1.61813812 C4.98542639,0.901808165 5.77495795,0.27959456 6.72135009,0.222079016 C7.66774218,0.169792159 8.41021557,0.70834679 8.38407214,1.42467674 Z"/><path id="Path" fill="url(#linearGradient-3)" d="M6.12005119,3.1292283 C6.14619462,3.59458134 5.92658984,3.98673277 5.62332605,4.00241882 C5.32006228,4.01810488 5.05339931,3.65732556 5.02725587,3.19197253 C5.00111245,2.7266195 5.22071725,2.33446807 5.52398102,2.31878201 C5.82724481,2.30309595 6.09390776,2.66387527 6.12005119,3.1292283 Z"/><path id="Path" fill="url(#linearGradient-4)" d="M6.66906323,3.1658291 C6.67952057,3.70438374 7.02984251,4.13313597 7.4481374,4.1226786 C7.86643223,4.11222123 8.19583943,3.66778294 8.18538209,3.12399962 C8.1749247,2.58544498 7.82460276,2.15669275 7.40630787,2.16715012 C6.98801304,2.17760749 6.65337714,2.62727447 6.66906323,3.1658291 Z"/><path id="Path" fill="#000" d="M7.01415647,3.28608888 C7.00892777,3.58412396 7.15533096,3.82464351 7.34879237,3.82464351 C7.53702502,3.82464351 7.69911431,3.58412396 7.704343,3.29131756 C7.7095717,2.99328247 7.56316846,2.75276293 7.3697071,2.75276293 C7.17624575,2.75276293 7.01938517,2.99328247 7.01415647,3.28608888 Z"/><path id="Path" fill="#000" d="M5.80633008,3.29131756 C5.83247351,3.53706579 5.73835712,3.74621322 5.60241131,3.76712797 C5.46646548,3.78281402 5.33574834,3.59981002 5.30960491,3.35406179 C5.28346148,3.10831356 5.37757782,2.89916613 5.51352365,2.87825139 C5.64946948,2.86256533 5.78018665,3.04556933 5.80633008,3.29131756 Z"/><path id="Path" fill="url(#linearGradient-5)" d="M7.09258676,3.11877093 C7.07690067,3.28608888 7.15533096,3.4220347 7.26513338,3.43249208 C7.3749358,3.44294945 7.47950952,3.3122323 7.49519556,3.15014304 C7.51088159,2.9828251 7.4324513,2.84687927 7.32264894,2.8364219 C7.21284652,2.82596453 7.1082728,2.95668167 7.09258676,3.11877093 Z"/><path id="Path" fill="url(#linearGradient-6)" d="M5.69129897,3.16060042 C5.70698505,3.29654625 5.64946948,3.41680602 5.56581051,3.42726339 C5.48215154,3.43772076 5.40372125,3.33314705 5.38803519,3.19197253 C5.37234914,3.0560267 5.42986468,2.93576693 5.51352365,2.92530956 C5.59718262,2.91485219 5.67561291,3.02465459 5.69129897,3.16060042 Z"/><path id="Path" fill="url(#linearGradient-7)" d="M4.04426295,8.29516982 C4.41549964,7.45335146 5.20503119,5.97363337 5.22071725,4.82855117 C5.22071725,3.91875985 7.94486252,3.69915505 8.16446736,4.60894637 C8.38407214,5.5187377 8.93831283,6.87819599 9.29386346,7.53701039 C9.64941409,8.1905961 10.6794652,10.2768417 9.5814412,12.0964244 C8.59321959,13.7068596 5.59718262,14.982659 3.99720478,11.8768196 C3.45342146,10.7997103 3.55276649,9.46639544 4.04426295,8.29516982 Z"/><path id="Path" fill="url(#linearGradient-8)" d="M3.70962706,7.66772754 C3.39067723,8.26902639 2.73186283,9.84808951 4.34229804,10.7108227 C6.07299302,11.6310714 6.06776433,13.5186269 3.98674741,12.619293 C2.08350579,11.8088467 2.9253242,8.525232 3.45865015,7.74092914 C3.80374341,7.19191715 4.32661199,6.51741665 3.70962706,7.66772754 Z"/><path id="Path" fill="#000" stroke="#000" stroke-width=".5" d="M3.98151872,6.98799841 C3.4743362,7.81413073 2.2612811,9.75920188 3.88740238,10.7735669 C6.07299302,12.1173392 5.45600811,13.4558827 3.45865015,12.2480563 C0.645617201,10.5644195 3.11878557,7.16577372 4.24295301,5.86905964 C5.52920971,4.415485 4.48870124,6.13572259 3.98151872,6.98799841 Z"/><path id="Path" fill="url(#linearGradient-9)" d="M8.9069407,8.61411969 C8.9069407,9.53436834 8.02329281,10.7265087 6.50697395,10.7160514 C4.9435969,10.7265087 4.27955381,9.53436834 4.27955381,8.61411969 C4.27955381,7.69387098 5.31483359,6.94616894 6.59063294,6.94616894 C7.87166093,6.95139758 8.9069407,7.69387098 8.9069407,8.61411969 Z"/><path id="Path" fill="url(#linearGradient-10)" d="M8.08080837,5.72265646 C8.06512233,6.67427724 7.4429087,6.89911072 6.65860584,6.89911072 C5.87430298,6.89911072 5.30437622,6.75793623 5.23640331,5.72265646 C5.23640331,5.0742994 5.87430298,4.69783403 6.65860584,4.69783403 C7.4429087,4.69260535 8.08080837,5.06907072 8.08080837,5.72265646 Z"/><path id="Path" fill="url(#linearGradient-11)" d="M3.33839037,7.18668846 C3.85080158,6.40761429 4.93313953,5.21024524 3.54230912,7.35400638 C2.41291299,9.12130221 3.12401426,10.255927 3.49002226,10.5696482 C4.54621679,11.5108116 4.5043873,12.1434826 3.67302626,11.6467574 C1.89004442,10.5853342 2.2612811,8.7971237 3.33839037,7.18668846 Z"/><path id="Path" fill="url(#linearGradient-12)" d="M10.7578955,7.50563826 C10.3134572,6.59061831 8.90171206,4.2690818 10.8258684,6.96708367 C12.5774781,9.40887989 11.348737,11.1082028 11.1291322,11.2755207 C10.9095273,11.4428387 10.1722826,11.7827033 10.3866588,11.1918618 C10.6062636,10.6010202 11.6938302,9.48208148 10.7578955,7.50563826 Z"/><path id="Path" fill="url(#linearGradient-13)" stroke="#E68C3F" stroke-width=".5" d="M2.95146763,14.7212247 C1.78024202,14.099011 0.0809191408,14.8414844 0.697904063,13.1578476 C0.823392518,12.7761536 0.51490006,12.2009981 0.713590121,11.8297614 C0.948880979,11.3748658 1.4560635,11.4742108 1.75932727,11.170947 C2.05736236,10.8572259 2.24559505,10.3134426 2.80506443,10.3971015 C3.35930512,10.4807605 3.73054181,11.1604896 4.11746455,11.9970793 C4.40504227,12.5931496 5.41940731,13.434968 5.35143439,14.1042397 C5.26777542,15.1290621 4.10177849,15.3225235 2.95146763,14.7212247 Z"/><path id="Path" fill="url(#linearGradient-14)" d="M11.4794541,10.7683382 C11.3016788,11.1029741 10.5592054,11.6415287 10.0624803,11.5003542 C9.56052646,11.3644084 9.33046428,10.6010202 9.42980931,10.0206361 C9.52392564,9.37227912 10.0624803,9.33567829 10.7422094,9.6598568 C11.4742254,10.0206361 11.6938302,10.3238999 11.4794541,10.7683382 Z"/><path id="Path" fill="url(#linearGradient-15)" stroke="#E68C3F" stroke-width=".5" d="M11.0716166,14.4336469 C11.9291211,13.3931384 13.8375914,13.6075146 12.5513347,12.1800834 C12.279443,11.8715909 12.363102,11.2127765 12.0284661,10.9304274 C11.6363147,10.5853342 11.2023338,10.8676832 10.8049536,10.6899079 C10.4075735,10.4964465 9.98927869,10.1252099 9.5030109,10.3866442 C9.01674312,10.6533071 8.96445626,11.3434936 8.91739809,12.253285 C8.87556863,12.9068707 8.27949842,13.999666 8.59844823,14.6009649 C9.05857258,15.5316709 10.2559416,15.4061825 11.0716166,14.4336469 Z"/><path id="Path" fill="url(#linearGradient-16)" d="M10.70038,13.0428165 C12.0284661,11.0820593 11.0402445,11.0977454 10.7056086,10.9461135 C10.3709728,10.789253 10.0206508,10.4807605 9.62849936,10.6951366 C9.2363479,10.9147414 9.21543317,11.4794395 9.20497583,12.2219128 C9.18928974,12.7552388 8.74485147,13.6493441 9.01151442,14.1460692 C9.33569293,14.7264534 10.1199958,13.8846349 10.70038,13.0428165 Z"/><path id="Path" fill="url(#linearGradient-17)" d="M2.67957597,13.3251656 C0.692675377,12.0389089 1.62338144,11.5996992 1.92141653,11.3957805 C2.28219585,11.1343462 2.28742454,10.6323924 2.73186283,10.6794505 C3.17630111,10.7265087 3.4377354,11.2755207 3.73577049,11.9552499 C3.95537529,12.4415177 4.71876342,13.0898747 4.66124787,13.6493441 C4.58804627,14.3081585 3.53708043,13.8741775 2.67957597,13.3251656 Z"/><path id="Path" fill="#000" d="M11.364423,10.7526521 C11.2075625,11.0245438 10.5696628,11.4532961 10.1461392,11.3382649 C9.71215835,11.2284626 9.51346824,10.6167063 9.60235593,10.156582 C9.68078622,9.63371342 10.1461392,9.60756999 10.731752,9.86900424 C11.3539657,10.1513533 11.547427,10.3918729 11.364423,10.7526521 Z"/><path id="Path" fill="url(#linearGradient-18)" d="M10.9356708,10.6010202 C10.8363258,10.789253 10.4180309,11.087288 10.1252245,11.0088577 C9.83241811,10.9304274 9.68601492,10.5069039 9.73307308,10.1879541 C9.77490255,9.82717478 10.0886237,9.80626004 10.4860038,9.98403536 C10.914756,10.1827254 11.0507019,10.3500433 10.9356708,10.6010202 Z"/><path id="Path" fill="url(#linearGradient-19)" stroke="#E68C3F" stroke-width=".5" d="M5.52920971,3.77758534 C5.73835712,3.58412396 6.24553964,2.99328247 7.20761782,3.61026739 C7.38539314,3.72529848 7.53179638,3.73575585 7.87166093,3.88215905 C8.55661876,4.16450808 8.23244026,4.84423723 7.50042426,5.0742994 C7.18670309,5.17364444 6.90435405,5.5553385 6.33965603,5.5187377 C5.85338824,5.49259427 5.72789979,5.17364444 5.42986468,5.0010978 C4.90176742,4.70306272 4.82333713,4.30045392 5.11091485,4.0860778 C5.39849257,3.87170168 5.50829497,3.7932714 5.52920971,3.77758534 Z"/><path id="Path" stroke="#E68C3F" stroke-width=".5" d="M7.88211832,4.32659734 C7.59454058,4.3422834 6.972327,4.96449701 6.31874124,4.96449701 C5.66515554,4.96449701 5.27300411,4.35796946 5.17365907,4.35796946"/><path id="Path" fill="url(#linearGradient-20)" d="M5.85338824,3.72529848 C5.95796196,3.63118214 6.28736917,3.37497654 6.72135009,3.63641082 C6.81546642,3.68869768 6.90958275,3.74621322 7.0455286,3.82464351 C7.32264894,3.98673277 7.18670309,4.22202363 6.85206719,4.36842683 C6.7004353,4.43117106 6.44945839,4.56711689 6.26122574,4.55665952 C6.05207829,4.53574477 5.91090374,4.39979894 5.77495795,4.31091129 C5.51875234,4.14359334 5.53443839,4.00241882 5.65469817,3.89261643 C5.74358582,3.80895745 5.84293085,3.73052716 5.85338824,3.72529848 Z"/></g></svg>