<svg xmlns="http://www.w3.org/2000/svg" xmlns:xlink="http://www.w3.org/1999/xlink" version="1.1" viewBox="0 0 13 16"><polygon fill="#919191" points=".009 9.348 1.208 9.36 1.167 14.703 9.151 14.703 9.151 9.38 10.416 9.38 10.416 16 .002 16"/><polygon fill="#919191" points="1.965 12.507 8.22 12.507 8.22 13.838 1.965 13.838"/><polygon fill="#A78B68" points="2.111 10.112 8.371 10.716 8.24 12.074 1.98 11.47"/><polygon fill="#C19653" points="2.683 7.405 8.734 9.113 8.364 10.425 2.312 8.717"/><polygon fill="#D48C28" points="4.15 4.343 9.533 7.594 8.828 8.761 3.445 5.51"/><polygon fill="#FE8908" points="7.212 1.443 10.875 6.555 9.766 7.35 6.103 2.238"/><polygon fill="#FF7A15" points="11.466 .054 12.502 6.255 11.157 6.48 10.121 .279"/></svg>